<?xml version="1.0" encoding="UTF-8"?>
<svg width="16px" height="16px" viewBox="0 0 16 16" version="1.1" xmlns="http://www.w3.org/2000/svg" xmlns:xlink="http://www.w3.org/1999/xlink">
    <title>编组</title>
    <g id="页面-1" stroke="none" stroke-width="1" fill="none" fill-rule="evenodd">
        <g id="2定位---1地图---1默认" transform="translate(-135.000000, -711.000000)">
            <g id="编组-11" transform="translate(24.000000, 698.000000)">
                <g id="编组" transform="translate(111.000000, 13.000000)">
                    <rect id="矩形" fill-opacity="0.01" fill="#FFFFFF" fill-rule="nonzero" x="0" y="0" width="16" height="16"></rect>
                    <line x1="1.33333333" y1="2.33337333" x2="14.6666667" y2="2.33337333" id="路径" stroke="#2574F0" stroke-width="1.5" stroke-linecap="round"></line>
                    <line x1="1.33333333" y1="7.6667" x2="5" y2="7.6667" id="路径" stroke="#2574F0" stroke-width="1.5" stroke-linecap="round"></line>
                    <line x1="1.33333333" y1="13.0000333" x2="5" y2="13.0000333" id="路径" stroke="#2574F0" stroke-width="1.5" stroke-linecap="round"></line>
                    <path d="M14.25,8.79488703 C14.25,11.3403416 11,13.5221598 11,13.5221598 C11,13.5221598 7.75,11.3403416 7.75,8.79488703 C7.75,7.9269234 8.09240556,7.09448703 8.70188889,6.48070522 C9.31140833,5.86695976 10.1380639,5.52215976 11,5.52215976 C11.8619361,5.52215976 12.6885917,5.86695976 13.2981111,6.48070522 C13.9075944,7.09448703 14.25,7.9269234 14.25,8.79488703 Z" id="路径" stroke="#2574F0" stroke-width="1.5" fill="#2574F0" fill-rule="nonzero" stroke-linecap="round" stroke-linejoin="round"></path>
                    <path d="M11,9.52215976 C11.5523,9.52215976 12,9.07445976 12,8.52215976 C12,7.96985976 11.5523,7.52215976 11,7.52215976 C10.4477,7.52215976 10,7.96985976 10,8.52215976 C10,9.07445976 10.4477,9.52215976 11,9.52215976 Z" id="路径" stroke="#FFFFFF" stroke-width="1.5" fill="#FFFFFF" fill-rule="nonzero" stroke-linecap="round" stroke-linejoin="round"></path>
                </g>
            </g>
        </g>
    </g>
</svg>