<?xml version="1.0" encoding="UTF-8"?>
<svg width="12px" height="12px" viewBox="0 0 12 12" version="1.1" xmlns="http://www.w3.org/2000/svg" xmlns:xlink="http://www.w3.org/1999/xlink">
    <title>编组 9</title>
    <g id="页面-1" stroke="none" stroke-width="1" fill="none" fill-rule="evenodd">
        <g id="3任务---2任务详情" transform="translate(-16.000000, -325.000000)">
            <g id="编组-15" transform="translate(16.000000, 321.000000)">
                <g id="编组-9" transform="translate(0.000000, 4.000000)">
                    <circle id="椭圆形" fill="#2574F0" cx="6" cy="6" r="6"></circle>
                    <g id="编组" transform="translate(2.000000, 2.000000)" fill="#FFFFFF" fill-rule="nonzero">
                        <rect id="矩形" fill-opacity="0.01" x="0" y="0" width="8" height="8"></rect>
                        <path d="M4,3.33333333 C4.64433333,3.33333333 5.16666667,2.811 5.16666667,2.16666667 C5.16666667,1.522335 4.64433333,1 4,1 C3.35566667,1 2.83333333,1.522335 2.83333333,2.16666667 C2.83333333,2.811 3.35566667,3.33333333 4,3.33333333 Z" id="路径" stroke="#FFFFFF" stroke-linecap="round" stroke-linejoin="round"></path>
                        <path d="M1,6.8 L1,7 L7,7 L7,6.8 C7,6.05326667 7,5.6799 6.85468333,5.39468333 C6.72685,5.1438 6.52286667,4.93981667 6.27198333,4.81198333 C5.98676667,4.66666667 5.6134,4.66666667 4.86666667,4.66666667 L3.13333333,4.66666667 C2.3866,4.66666667 2.01323333,4.66666667 1.72801667,4.81198333 C1.47713,4.93981667 1.273155,5.1438 1.145325,5.39468333 C1,5.6799 1,6.05326667 1,6.8 Z" id="路径" stroke="#FFFFFF" stroke-linecap="round" stroke-linejoin="round"></path>
                    </g>
                </g>
            </g>
        </g>
    </g>
</svg>