<?xml version="1.0" encoding="UTF-8"?>
<svg width="36px" height="36px" viewBox="0 0 36 36" version="1.1" xmlns="http://www.w3.org/2000/svg" xmlns:xlink="http://www.w3.org/1999/xlink">
    <title>编组 5</title>
    <g id="页面-1" stroke="none" stroke-width="1" fill="none" fill-rule="evenodd">
        <g id="4控制台" transform="translate(-222.000000, -234.000000)">
            <g id="班次管理" transform="translate(193.000000, 212.000000)">
                <g id="编组-5" transform="translate(29.000000, 22.000000)">
                    <circle id="椭圆形" fill="#22CDA4" cx="18" cy="18" r="18"></circle>
                    <path d="M16,8 L23,8 C25.209139,8 27,9.790861 27,12 L27,24 C27,26.209139 25.209139,28 23,28 L16,28 L16,28 L16,8 Z" id="矩形" fill="#FFFFFF"></path>
                    <path d="M13,8 L15,8 L15,8 L15,28 L13,28 C10.790861,28 9,26.209139 9,24 L9,12 C9,9.790861 10.790861,8 13,8 Z" id="矩形" fill="#FFFFFF"></path>
                    <rect id="矩形" fill="#9BE2D1" opacity="0.400753997" x="10" y="12" width="4" height="2" rx="1"></rect>
                    <rect id="矩形备份-5" fill="#22CDA4" x="18" y="12" width="7" height="2" rx="1"></rect>
                    <rect id="矩形备份-3" fill="#9BE2D1" opacity="0.400753997" x="10" y="17" width="4" height="2" rx="1"></rect>
                    <rect id="矩形备份-6" fill="#22CDA4" x="18" y="17" width="4" height="2" rx="1"></rect>
                    <rect id="矩形备份-4" fill="#9BE2D1" opacity="0.400753997" x="10" y="22" width="4" height="2" rx="1"></rect>
                    <rect id="矩形备份-7" fill="#22CDA4" x="18" y="22" width="5" height="2" rx="1"></rect>
                </g>
            </g>
        </g>
    </g>
</svg>