<?xml version="1.0" encoding="UTF-8"?>
<svg width="16px" height="16px" viewBox="0 0 16 16" version="1.1" xmlns="http://www.w3.org/2000/svg" xmlns:xlink="http://www.w3.org/1999/xlink">
    <title>编组</title>
    <g id="页面-1" stroke="none" stroke-width="1" fill="none" fill-rule="evenodd">
        <g id="1看板---4查看报表备份" transform="translate(-113.000000, -745.000000)">
            <g id="编组" transform="translate(67.000000, 732.000000)">
                <g transform="translate(46.000000, 13.000000)">
                    <rect id="矩形" fill-opacity="0.01" fill="#FFFFFF" x="0" y="0" width="16" height="16"></rect>
                    <g transform="translate(1.666667, 2.666667)" stroke="#FFFFFF" stroke-linejoin="round" stroke-width="1.5">
                        <path d="M0.666666667,0 L12,0 C12.3681898,0 12.6666667,0.298476833 12.6666667,0.666666667 L12.6666667,10 C12.6666667,10.3681898 12.3681898,10.6666667 12,10.6666667 L0.666666667,10.6666667 C0.298476833,10.6666667 0,10.3681898 0,10 L0,0.666666667 C0,0.298476833 0.298476833,0 0.666666667,0 Z" id="路径" stroke-linecap="round"></path>
                        <circle id="椭圆形" stroke-linecap="round" cx="3.16666667" cy="2.83333333" r="1"></circle>
                        <path d="M3.33333333,5.33333333 L5,6.66666667 L7,4.33333333 L12.6666667,8.66666667 L12.6666667,10 C12.6666667,10.3681898 12.3681898,10.6666667 12,10.6666667 L0.666666667,10.6666667 C0.298476833,10.6666667 0,10.3681898 0,10 L0,8.66666667 L3.33333333,5.33333333 Z" id="路径"></path>
                    </g>
                </g>
            </g>
        </g>
    </g>
</svg>