<?xml version="1.0" encoding="UTF-8"?>
<svg width="16px" height="16px" viewBox="0 0 16 16" version="1.1" xmlns="http://www.w3.org/2000/svg" xmlns:xlink="http://www.w3.org/1999/xlink">
    <title>编组</title>
    <g id="页面-1" stroke="none" stroke-width="1" fill="none" fill-rule="evenodd">
        <g id="3任务---3任务报表---2房间视图&amp;其他视图---选中异常任务" transform="translate(-24.000000, -726.000000)">
            <g id="编组-6" transform="translate(12.000000, 680.000000)">
                <g id="编组-7" transform="translate(12.000000, 44.000000)">
                    <g id="编组" transform="translate(8.000000, 10.000000) scale(-1, 1) rotate(-90.000000) translate(-8.000000, -10.000000) translate(0.000000, 2.000000)">
                        <rect id="矩形" stroke="#979797" fill="#D8D8D8" opacity="0" x="0.5" y="0.5" width="15" height="15"></rect>
                        <polygon id="矩形" fill="#2574F0" points="11 6 15 6 15 13 9.5 13"></polygon>
                        <polyline id="路径" stroke="#333333" stroke-width="1.5" stroke-linecap="round" stroke-linejoin="round" points="1.33333333 2.66666667 9 2.66666667 12.6666667 6"></polyline>
                        <polyline id="路径" stroke="#333333" stroke-width="1.5" stroke-linecap="round" stroke-linejoin="round" points="3 6 3 13.3333333 14.6666667 13.3333333 14.6666667 6 7.3334 6"></polyline>
                        <path d="M2,5 L6.45713333,8.51256667 C6.83333333,8.83333333 7.6094,9.33333333 8.33333333,8.66666667 C9.09643333,7.96393333 8.5,7.16666667 8.33333333,7 L5.66666667,5" id="路径" stroke="#333333" stroke-width="1.5" stroke-linecap="round" stroke-linejoin="round"></path>
                    </g>
                </g>
            </g>
        </g>
    </g>
</svg>