<?xml version="1.0" encoding="UTF-8"?>
<svg width="36px" height="36px" viewBox="0 0 36 36" version="1.1" xmlns="http://www.w3.org/2000/svg" xmlns:xlink="http://www.w3.org/1999/xlink">
    <title>编组</title>
    <g id="页面-1" stroke="none" stroke-width="1" fill="none" fill-rule="evenodd">
        <g id="4控制台" transform="translate(-36.000000, -234.000000)" fill-rule="nonzero">
            <g id="考勤管理" transform="translate(12.000000, 212.000000)">
                <g id="编组" transform="translate(24.000000, 22.000000)">
                    <path d="M18,36 C8.05875001,36 0,27.94125 0,18 C0,8.05875001 8.05875001,0 18,0 C27.94125,0 36,8.05875001 36,18 C36,27.94125 27.94125,36 18,36 Z" id="路径" fill="#5540FF"></path>
                    <g id="编组-3" transform="translate(8.000000, 8.000000)">
                        <path d="M17.1841903,2 L2.81657715,2 C1.26152859,2.00321091 0.00211032286,3.2002688 0,4.6771137 L0,6 L20,6 L20,4.6771137 C20,3.19972243 18.7398155,2.00160891 17.1841903,2 L17.1841903,2 Z" id="路径" fill="#FFFFFF"></path>
                        <path d="M19.1973912,7.004 L0,7.004 L0,16.164 C0,17.732 1.25992709,19.0018182 2.81603682,19.004 L17.1862651,19.004 C18.7423748,19.0018182 20,17.7290909 20,16.164 L20,7.004 L19.1973912,7.004 L19.1973912,7.004 Z" id="路径" fill="#FFFFFF"></path>
                        <path d="M15.077,10.73975 L11.68775,14.13725 L10.96925,14.85875 L10.19225,15.635 L9.78124999,16.03925 C9.63425,16.18625 9.43625,16.27025 9.22774999,16.27025 L9.20225,16.27025 C8.99374999,16.27025 8.79574999,16.18625 8.64875,16.03925 L6.07625001,13.46225 C5.8779676,13.2649054 5.80002918,12.9767691 5.8717934,12.7063792 C5.94355762,12.4359893 6.15412178,12.2244245 6.42416841,12.1513792 C6.69421503,12.0783339 6.98271761,12.1549054 7.18100001,12.35225 L7.184,12.35525 L9.21725001,14.3915 L10.18775,13.41875 L10.57625,13.03025 L10.96475,12.64175 L13.9685,9.63274999 C14.1662465,9.43446757 14.4547542,9.35674357 14.7253451,9.42885586 C14.9959359,9.50096815 15.2075007,9.71196116 15.2803451,9.98235587 C15.3531894,10.2527506 15.2762465,10.5414676 15.0785,10.73975 L15.077,10.73975 Z" id="路径" fill="#5540FF"></path>
                        <path d="M6,0 L6,0 C6.66666667,0 7,0.399999999 7,1.2 L7,2.8 C7,3.6 6.66666667,4 6,4 L6,4 C5.33333333,4 5,3.6 5,2.8 L5,1.2 C5,0.399999999 5.33333333,0 6,0 L6,0 Z" id="路径" fill="#ABA0FF" opacity="0.4"></path>
                        <path d="M14,0 L14,0 C14.6666667,0 15,0.399999999 15,1.2 L15,2.8 C15,3.6 14.6666667,4 14,4 L14,4 C13.3333333,4 13,3.6 13,2.8 L13,1.2 C13,0.399999999 13.3333333,0 14,0 L14,0 Z" id="路径" fill="#ABA0FF" opacity="0.4"></path>
                    </g>
                </g>
            </g>
        </g>
    </g>
</svg>