<?xml version="1.0" encoding="UTF-8"?>
<svg width="24px" height="24px" viewBox="0 0 24 24" version="1.1" xmlns="http://www.w3.org/2000/svg" xmlns:xlink="http://www.w3.org/1999/xlink">
    <title>编组</title>
    <g id="页面-1" stroke="none" stroke-width="1" fill="none" fill-rule="evenodd">
        <g id="4控制台" transform="translate(-16.000000, -326.000000)">
            <g id="修改密码" transform="translate(0.000000, 308.000000)">
                <g id="编组" transform="translate(16.000000, 18.000000)">
                    <rect id="矩形" fill-opacity="0.01" fill="#FFFFFF" fill-rule="nonzero" x="0" y="0" width="24" height="24"></rect>
                    <rect id="矩形" fill-opacity="0.01" fill="#FFFFFF" fill-rule="nonzero" opacity="0" x="0" y="0" width="24" height="24"></rect>
                    <path d="M11.4341,12.149 C12.70525,13.39665 13.2069,15.22615 12.74855,16.943 C12.29025,18.6599 10.9422,20.0008 9.21625,20.45675 C7.4903,20.91265 5.6511,20.41365 4.396875,19.1492 C2.51104,17.2069 2.53801,14.1196 4.457495,12.2102 C6.377,10.3008 9.48065,10.274 11.4332,12.1499 L11.4341,12.149 Z" id="路径" stroke="#333333" stroke-width="2" stroke-linejoin="round"></path>
                    <polygon id="路径" stroke="#2574F0" stroke-width="2" stroke-linejoin="round" points="15.1527 8.45 17.86695 11.15 21.03365 8 18.31935 5.3"></polygon>
                    <line x1="11.5" y1="12" x2="20" y2="3.5" id="路径" stroke="#333333" stroke-width="2" stroke-linecap="round" stroke-linejoin="round"></line>
                </g>
            </g>
        </g>
    </g>
</svg>