<?xml version="1.0" encoding="UTF-8"?>
<svg width="16px" height="16px" viewBox="0 0 16 16" version="1.1" xmlns="http://www.w3.org/2000/svg" xmlns:xlink="http://www.w3.org/1999/xlink">
    <title>编组</title>
    <g id="页面-1" stroke="none" stroke-width="1" fill="none" fill-rule="evenodd">
        <g id="3任务---2任务详情" transform="translate(-28.000000, -259.000000)">
            <g id="编组-5" transform="translate(16.000000, 142.000000)">
                <g id="编组-3" transform="translate(12.000000, 115.000000)">
                    <g id="编组" transform="translate(0.000000, 2.000000)">
                        <rect id="矩形" stroke="#979797" fill="#D8D8D8" opacity="0" x="0.5" y="0.5" width="15" height="15"></rect>
                        <path d="M2,6.33333333 C2,3.66666667 3.33333333,2.33333333 6,2.33333333" id="路径" stroke="#333333" stroke-width="1.5" stroke-linecap="round" stroke-linejoin="round"></path>
                        <path d="M13.3333333,9.66666667 C13.3333333,12.3333333 12,13.6666667 9.33333333,13.6666667" id="路径" stroke="#333333" stroke-width="1.5" stroke-linecap="round" stroke-linejoin="round"></path>
                        <path d="M9.33333333,5.66666667 C9.33333333,3.82573333 10.8257333,2.33333333 12.6666667,2.33333333 L14,2.33333333 L14,7 L9.33333333,7 L9.33333333,5.66666667 Z" id="路径" stroke="#F8AF00" stroke-width="1.5" stroke-linecap="round" stroke-linejoin="round"></path>
                        <path d="M2,9 L6.66666667,9 L6.66666667,10.3333333 C6.66666667,12.1742667 5.17426667,13.6666667 3.33333333,13.6666667 L2,13.6666667 L2,9 Z" id="路径" stroke="#333333" stroke-width="1.5" fill="#F8AF00" stroke-linecap="round" stroke-linejoin="round"></path>
                    </g>
                </g>
            </g>
        </g>
    </g>
</svg>