<?xml version="1.0" encoding="UTF-8"?>
<svg width="16px" height="16px" viewBox="0 0 16 16" version="1.1" xmlns="http://www.w3.org/2000/svg" xmlns:xlink="http://www.w3.org/1999/xlink">
    <title>编组</title>
    <g id="页面-1" stroke="none" stroke-width="1" fill="none" fill-rule="evenodd">
        <g id="1看板---1看板" transform="translate(-183.000000, -456.000000)">
            <g id="今日考勤" transform="translate(12.000000, 376.000000)">
                <g id="编组-13" transform="translate(159.000000, 64.000000)">
                    <g id="编组" transform="translate(12.000000, 16.000000)">
                        <rect id="矩形" fill-opacity="0.01" fill="#FFFFFF" fill-rule="nonzero" x="0" y="0" width="16" height="16"></rect>
                        <path d="M6.33333333,6.66666667 C7.622,6.66666667 8.66666667,5.622 8.66666667,4.33333333 C8.66666667,3.04467 7.622,2 6.33333333,2 C5.04466667,2 4,3.04467 4,4.33333333 C4,5.622 5.04466667,6.66666667 6.33333333,6.66666667 Z" id="路径" stroke="#333333" stroke-width="1.5" fill="#F8AF00" fill-rule="nonzero" stroke-linecap="round"></path>
                        <path d="M9,9.33333333 L6.26666667,9.33333333 C4.7732,9.33333333 4.02646667,9.33333333 3.45603333,9.62396667 C2.95426,9.87963333 2.54631,10.2876 2.29065,10.7893667 C2,11.3598 2,12.1065333 2,13.6 L2,14 L9,14" id="路径" stroke="#333333" stroke-width="1.5" stroke-linecap="round" stroke-linejoin="round"></path>
                        <path d="M13,11.8333333 C13,12.2475583 12.8321125,12.6225583 12.56065,12.8939833 C12.289225,13.1654458 11.914225,13.3333333 11.5,13.3333333 C10.6715875,13.3333333 10,12.6617458 10,11.8333333 C10,11.0049208 10.6715875,10.3333333 11.5,10.3333333 C12.3284125,10.3333333 13,11.0049208 13,11.8333333 Z" id="路径" stroke="#F8AF00" stroke-width="1.5" fill-rule="nonzero"></path>
                    </g>
                </g>
            </g>
        </g>
    </g>
</svg>