<?xml version="1.0" encoding="UTF-8"?>
<svg width="24px" height="24px" viewBox="0 0 24 24" version="1.1" xmlns="http://www.w3.org/2000/svg" xmlns:xlink="http://www.w3.org/1999/xlink">
    <title>编组</title>
    <g id="页面-1" stroke="none" stroke-width="1" fill="none" fill-rule="evenodd">
        <g id="1看板---1看板" transform="translate(-318.000000, -169.000000)">
            <g id="编组-5" transform="translate(12.000000, 148.000000)">
                <g id="数据备份" transform="translate(180.000000, 0.000000)">
                    <g id="编组" transform="translate(126.000000, 21.000000)">
                        <rect id="矩形" stroke="#979797" fill="#D8D8D8" opacity="0" x="0.5" y="0.5" width="23" height="23"></rect>
                        <rect id="矩形" stroke="#32400B" fill="#FFC23A" stroke-linejoin="round" x="4" y="4" width="16" height="18" rx="1"></rect>
                        <rect id="矩形" stroke="#32400B" fill="#FFC23A" stroke-linejoin="round" x="3" y="2" width="18" height="3"></rect>
                        <path d="M12,11.5 C13.10455,11.5 14,10.60455 14,9.5 C14,8.39545 13.10455,7.5 12,7.5 C10.89545,7.5 10,8.39545 10,9.5 C10,10.60455 10.89545,11.5 12,11.5 Z" id="路径" stroke="#32400B" fill="#FFFFFF" fill-rule="nonzero" stroke-linejoin="round"></path>
                        <path d="M15,14.5 C15,12.84315 13.65685,11.5 12,11.5 C10.34315,11.5 9,12.84315 9,14.5" id="路径" stroke="#32400B" stroke-linecap="round" stroke-linejoin="round"></path>
                        <line x1="9" y1="17" x2="15" y2="17" id="路径" stroke="#32400B" stroke-linecap="round" stroke-linejoin="round"></line>
                        <line x1="6" y1="19.5" x2="8" y2="19.5" id="路径备份" stroke="#32400B" stroke-linecap="round" stroke-linejoin="round"></line>
                        <line x1="16" y1="19.5" x2="18" y2="19.5" id="路径备份-2" stroke="#32400B" stroke-linecap="round" stroke-linejoin="round"></line>
                        <line x1="11" y1="19.5" x2="13" y2="19.5" id="路径备份-3" stroke="#32400B" stroke-linecap="round" stroke-linejoin="round"></line>
                    </g>
                </g>
            </g>
        </g>
    </g>
</svg>