<?xml version="1.0" encoding="UTF-8"?>
<svg width="662px" height="637px" viewBox="0 0 662 637" version="1.1" xmlns="http://www.w3.org/2000/svg" xmlns:xlink="http://www.w3.org/1999/xlink">
    <title>编组 2</title>
    <g id="页面-1" stroke="none" stroke-width="1" fill="none" fill-rule="evenodd" opacity="0.100000001">
        <g id="登录" transform="translate(28.000000, -509.000000)">
            <g id="编组-2" transform="translate(-27.059342, 509.629699)">
                <path d="M104.946062,67.1160837 L472.699625,67.1160837 C505.326883,67.1160837 526.586822,89.5070719 520.185027,117.127756 L448.028097,428.450413 C441.626302,456.071097 420.366363,478.462085 400.542694,478.462085 L177.102993,478.462085 C157.279324,478.462085 136.019385,456.071097 129.617591,428.450413 L57.4606597,117.127756 C51.0588649,89.5070719 72.3188039,67.1160837 104.946062,67.1160837 Z" id="矩形" fill="#AFC7FF" transform="translate(288.822844, 272.789085) rotate(-20.000000) translate(-288.822844, -272.789085) "></path>
                <path d="M109.616155,125.74262 L424.38157,125.74262 C452.307697,125.74262 470.504375,144.90738 465.02499,168.548309 L403.264864,435.013724 C397.785478,458.654653 379.588799,477.819413 362.621444,477.819413 L171.376281,477.819413 C154.408926,477.819413 136.212247,458.654653 130.732861,435.013724 L68.9727353,168.548309 C63.4933496,144.90738 81.6900285,125.74262 109.616155,125.74262 Z" id="矩形备份" fill="#81E5FF" transform="translate(266.998863, 301.781017) rotate(-30.000000) translate(-266.998863, -301.781017) "></path>
                <path d="M190.91573,147.32612 L540.479332,147.32612 C571.492769,147.32612 591.701141,168.609597 585.615994,194.864096 L517.028116,490.787999 C510.942969,517.042499 490.734597,538.325976 471.891453,538.325976 L259.503609,538.325976 C240.660465,538.325976 220.452093,517.042499 214.366947,490.787999 L145.779068,194.864096 C139.693921,168.609597 159.902293,147.32612 190.91573,147.32612 Z" id="矩形备份-2" fill="#B4FFFA" transform="translate(365.697531, 342.826048) rotate(-42.000000) translate(-365.697531, -342.826048) "></path>
            </g>
        </g>
    </g>
</svg>