<?xml version="1.0" encoding="UTF-8"?>
<svg width="86px" height="32px" viewBox="0 0 86 32" version="1.1" xmlns="http://www.w3.org/2000/svg" xmlns:xlink="http://www.w3.org/1999/xlink">
    <title>编组 5</title>
    <g id="页面-1" stroke="none" stroke-width="1" fill="none" fill-rule="evenodd">
        <g id="登录" transform="translate(-32.000000, -124.000000)">
            <g id="编组-5" transform="translate(32.000000, 124.000000)">
                <g id="编组-2">
                    <rect id="矩形" stroke="#979797" fill="#D8D8D8" opacity="0" x="0.5" y="0.5" width="31" height="31"></rect>
                    <g id="资源-1" fill="#0058FF" fill-rule="nonzero">
                        <path d="M11.9804166,24.7420521 C10.9175386,25.1645735 9.18805798,25.6849583 7.406355,25.406902 C5.11164443,25.0465161 4.18085821,23.9544846 3.84602093,23.8146798 C3.63054128,23.7388215 3.3917306,23.7785878 3.21167323,23.9203101 C2.89270823,24.130145 2.58931923,24.3632551 2.30392627,24.6177811 C0.97280182,22.4233464 0.182638978,19.9375099 0,17.369675 C1.58970913,17.8015167 1.01372756,18.0935535 1.5436306,19.3890787 C2.39147547,21.4597443 3.95968129,20.496644 4.6969377,21.5731416 C5.28981473,22.4352717 5.24220025,23.8566212 8.02380724,24.4236077 C9.41537871,24.709431 10.8238456,24.5789464 11.8821158,24.3878798 C11.9752588,24.3718246 12.0653213,24.4296042 12.0906508,24.5216654 C12.1159802,24.6137265 12.0683721,24.7102493 11.9804166,24.7451589" id="路径"></path>
                        <path d="M32,16.1689064 C31.9996479,23.0753371 27.6643615,29.2200044 21.2068734,31.4666667 C21.1438994,30.0950255 21.2667755,28.2278537 22.0547182,26.4554385 C22.4156667,25.647677 23.2988384,25.082244 24.092925,24.3039968 C27.9435538,20.524605 28.1524431,15.5506582 28.1524431,13.5996035 C28.1524431,12.4034951 28.5548622,12.0027211 29.0847653,11.8691298 C29.3907475,11.7986118 29.6087661,11.5247627 29.6115964,11.2073867 L29.6115964,10.9231168 C29.6119597,10.5579473 29.4458632,10.2129949 29.1613853,9.98810966 C28.8769074,9.76322444 28.5058115,9.68351595 28.155515,9.77205663 C25.1327638,10.5487504 25.9314582,13.8963005 25.314006,15.6081335 C25.2125626,15.8970094 25.0769249,16.1724077 24.9100509,16.4283221 C24.6692139,16.7820822 24.2796343,17.0027186 23.8555517,17.0255322 C23.4314691,17.0483459 23.0209448,16.8707514 22.7443602,16.5448262 C22.0716137,15.7681324 20.812134,14.6667807 18.9966401,14.5937715 C17.0367668,14.5145487 15.8571566,15.2570679 15.2796391,15.6640555 C15.0159609,15.8492542 14.6565403,15.8029782 14.4471537,15.5568717 C11.2784871,11.8800035 6.85341269,10.7802051 2.78621484,11.2073867 C2.05531958,11.2714426 1.33566324,11.4306872 0.645099357,11.6811699 C2.85800307,3.94374728 10.3629878,-0.967748282 18.2485932,0.160895686 C26.1341986,1.28953965 31.996904,8.11431416 32,16.1689064" id="路径"></path>
                        <path d="M19.3790919,18.6387926 C19.6294519,18.8919947 19.6693866,19.2601476 19.469713,19.4636413 C19.2700394,19.6671351 18.9044831,19.6189801 18.6541231,19.3719915 C18.4037631,19.1250029 18.3638284,18.7506365 18.563502,18.5471427 C18.7631756,18.3436489 19.1287319,18.3918039 19.3790919,18.6387926" id="路径"></path>
                    </g>
                </g>
                <g id="资源-4" transform="translate(39.000000, 4.000000)" fill-rule="nonzero">
                    <path d="M15.3640886,6.86758801 L15.3050515,6.8227894 L15.3549276,6.76882745 C16.8537035,5.17715933 16.8038782,2.67858228 15.2428393,1.14796383 C13.6818004,-0.382654611 11.1833904,-0.382654611 9.62235146,1.14796383 C8.06131254,2.67858228 8.01148722,5.17715933 9.51026312,6.76882745 L9.56217498,6.8227894 L9.50313796,6.86758801 C8.83109255,7.38649625 8.30762909,8.07339542 7.98547952,8.85908964 L7.91219219,9.03930221 L7.85722669,8.85298073 C7.31685206,7.03528173 5.64999564,5.78615141 3.75415412,5.77816739 C3.39436727,5.77733321 3.03592754,5.82215008 2.68741633,5.91154505 L2.6039502,5.9329262 L2.6039502,4.03916699 L6.20826178,4.03916699 C6.79431047,4.02120629 7.26009189,3.54080758 7.26009189,2.95432804 C7.26009189,2.3678485 6.79431047,1.8874498 6.20826178,1.86948909 L1.52092634,1.86948909 C1.23288052,1.86894853 0.956417679,1.98288653 0.752356748,2.18623794 C0.548295817,2.38958934 0.433352481,2.66569659 0.43281307,2.95381897 L0.43281307,7.60574684 C0.352590356,8.05288361 0.559791736,8.50259316 0.951754767,8.73205709 C1.3437178,8.96152102 1.83717708,8.9219939 2.18763746,8.63306031 C2.22399361,8.60569831 2.25803774,8.57539098 2.28942542,8.54244495 C2.92537257,7.92704106 3.87819022,7.77515203 4.67387582,8.16233878 C5.46956141,8.54952553 5.93822688,9.39311923 5.84672307,10.2734535 C5.75521926,11.1537877 5.12308328,11.8829009 4.26478673,12.0980778 C3.40649017,12.3132548 2.50528926,11.9685526 2.00950853,11.235452 C1.67288202,10.7400418 0.998654356,10.6110843 0.503046761,10.9473155 C0.00764213143,11.2844145 -0.121254541,11.9591378 0.214986841,12.4551958 C1.0841947,13.7347833 2.57655509,14.4450056 4.11747165,14.3124093 C5.65838822,14.179813 7.00755459,13.2250766 7.64550774,11.8157976 L7.72490235,11.6406758 L7.77172481,11.8290335 C8.28446284,13.8647581 10.0608749,15.3305839 12.1564181,15.4471111 C14.2519613,15.5636383 16.1798594,14.3037986 16.9150222,12.3374663 C17.650185,10.371134 17.0218406,8.15507065 15.3640886,6.86758801 Z M12.4336133,5.86369906 C11.6863409,5.86575229 11.0115038,5.41707225 10.7241067,4.72708958 C10.4367096,4.03710691 10.593424,3.2418783 11.1210976,2.71260558 C11.6487712,2.18333286 12.4433529,2.02438255 13.1339429,2.30995049 C13.8245328,2.59551843 14.2749574,3.26929388 14.2749574,4.01676769 C14.2738367,5.03593374 13.4484362,5.86200897 12.4295417,5.86369906 L12.4336133,5.86369906 Z M12.4336133,8.03540619 C13.496792,8.03540619 14.4552449,8.67612911 14.8619153,9.65871813 C15.2685858,10.6413072 15.0433577,11.7721879 14.2912856,12.5238771 C13.5392135,13.2755664 12.4084591,13.4999779 11.4264466,13.0924381 C10.4444341,12.6848983 9.80462467,11.7256945 9.8054474,10.6622335 C9.80656893,9.21273621 10.9804309,8.0376513 12.4295417,8.03540619 L12.4336133,8.03540619 Z" id="形状" fill="#0058FF"></path>
                    <path d="M35.6097133,14.2654667 C35.5245287,14.2650999 35.4400878,14.2495862 35.3603328,14.21965 C34.9928024,14.0811723 34.8065994,13.6713258 34.9440201,13.3033149 C35.2439591,12.5037756 35.3973965,11.6567137 35.3969765,10.8027382 L35.3969765,2.18409748 C35.3969765,1.79048133 35.7159806,1.4713924 36.1094922,1.4713924 L39.0450569,1.4713924 C39.4385684,1.4713924 39.7575751,1.79048133 39.7575751,2.18409748 L39.7575751,10.8047745 C39.7583597,11.8287506 39.574577,12.8444805 39.2150428,13.8032266 C39.0574234,14.1395361 38.6680115,14.2983758 38.3202237,14.1682202 C37.9724359,14.0380645 37.7828912,13.6625568 37.8846742,13.3053512 C38.1846132,12.5058119 38.3380506,11.65875 38.3376306,10.8047745 L38.3376306,2.89476626 L36.8169185,2.89476626 L36.8169185,10.8047745 C36.8178838,11.8287665 36.6340953,12.8445281 36.2743887,13.8032266 C36.1703502,14.0804665 35.9057609,14.2644719 35.6097133,14.2654667 L35.6097133,14.2654667 Z" id="路径" fill="#0058FF"></path>
                    <path d="M40.6309132,14.2736119 C40.3983821,14.2724605 40.1810423,14.1578829 40.0486605,13.9666591 C39.9162787,13.7754352 39.8855125,13.5316265 39.9662379,13.3134964 C40.2657738,12.5142311 40.4188663,11.667515 40.4181764,10.8139379 L40.4181764,2.19326083 C40.4181764,1.79964468 40.7371806,1.48055575 41.1306921,1.48055575 L46.2648767,1.48055575 C46.6583883,1.48055575 46.9773924,1.79964468 46.9773924,2.19326083 L46.9773924,5.10517016 C46.9773924,5.49878631 46.6583883,5.81787524 46.2648767,5.81787524 L43.8830385,5.81787524 C43.4895269,5.81787524 43.1705228,5.49878631 43.1705228,5.10517016 C43.1705228,4.71155401 43.4895269,4.39246508 43.8830385,4.39246508 L45.5543968,4.39246508 L45.5543968,2.90291146 L41.8391363,2.90291146 L41.8391363,10.8139379 C41.8399123,11.8375818 41.656128,12.8529757 41.2966065,13.8113718 C41.1924363,14.0889593 40.9273335,14.2730398 40.6309132,14.2736119 Z" id="路径" fill="#0058FF"></path>
                    <path d="M37.2892146,6.49189062 L36.1064385,6.49189062 C35.712927,6.49189062 35.3939229,6.17280168 35.3939229,5.77918554 C35.3939229,5.3855694 35.712927,5.06648046 36.1064385,5.06648046 L37.2892146,5.06648046 C37.6827262,5.06648046 38.0017303,5.38556939 38.0017303,5.77918554 C38.0017303,6.17280168 37.6827262,6.49189062 37.2892146,6.49189062 L37.2892146,6.49189062 Z" id="路径" fill="#0058FF"></path>
                    <path d="M37.2892146,9.88742125 L36.1064385,9.88742125 C35.7375722,9.85615426 35.4540876,9.54754838 35.4540876,9.17726155 C35.4540876,8.80697471 35.7375722,8.49836884 36.1064385,8.46710184 L37.2892146,8.46710184 C37.5572137,8.44438487 37.8151635,8.57455429 37.956153,8.80365939 C38.0971424,9.03276449 38.0971424,9.3217586 37.956153,9.5508637 C37.8151635,9.7799688 37.5572137,9.91013822 37.2892146,9.88742125 L37.2892146,9.88742125 Z" id="路径" fill="#0058FF"></path>
                    <path d="M46.2628409,11.1672359 C45.8693294,11.1672359 45.5503252,10.848147 45.5503252,10.4545309 L45.5503252,8.0639144 L43.2092022,8.0639144 C42.8156907,8.0639144 42.4966865,7.74482546 42.4966865,7.35120931 C42.4966865,6.95759317 42.8156907,6.63850423 43.2092022,6.63850423 L46.2567337,6.63850423 C46.6502452,6.63850423 46.9692501,6.95759317 46.9692501,7.35120931 L46.9692501,10.4535127 C46.9698231,10.8451523 46.6543625,11.1638795 46.2628409,11.1672359 L46.2628409,11.1672359 Z" id="路径" fill="#0058FF"></path>
                    <path d="M43.0666991,14.2644486 C42.78046,14.262444 42.5232092,14.0892927 42.4135403,13.8248183 C42.3038714,13.5603438 42.3630784,13.2558981 42.5638666,13.0518318 L43.7334102,11.8819773 L42.5638666,10.713141 C42.3605316,10.5389631 42.2719617,10.2654778 42.3345718,10.0051262 C42.3971818,9.74477467 42.6004047,9.5414978 42.8606871,9.47887111 C43.1209695,9.41624443 43.3943821,9.50483779 43.5685137,9.70822683 L45.239872,11.3800293 C45.5161311,11.658011 45.5161311,12.1069618 45.239872,12.3849435 L43.5685137,14.056746 C43.4352138,14.1895298 43.254824,14.2641938 43.0666991,14.2644486 Z" id="路径" fill="#0058FF"></path>
                    <path d="M46.2628409,14.2736143 C46.0743681,14.2741003 45.8935844,14.1989066 45.7610263,14.0648912 L45.6317556,13.9366043 C45.3896593,13.6538312 45.4059364,13.2323133 45.6691176,12.9690621 C45.9322989,12.7058109 46.3537048,12.6895294 46.6364027,12.9316901 L46.7646556,13.0609952 C46.9653195,13.2649289 47.0245949,13.5691325 46.915185,13.8335176 C46.8057751,14.0979027 46.5488952,14.2712029 46.2628409,14.2736143 L46.2628409,14.2736143 Z" id="路径" fill="#0058FF"></path>
                    <path d="M26.6391406,14.2053959 C26.2456291,14.2053959 25.9266249,13.886307 25.9266249,13.4926908 L25.9266249,6.54890702 C25.9266249,6.15529088 26.2456291,5.83620194 26.6391406,5.83620194 C27.0326522,5.83620194 27.3516563,6.15529088 27.3516563,6.54890702 L27.3516563,13.4947271 C27.3505343,13.8875478 27.0318585,14.2053959 26.6391406,14.2053959 L26.6391406,14.2053959 Z" id="路径" fill="#0058FF"></path>
                    <path d="M31.4079064,9.67360973 L29.0576225,9.67360973 C28.6641109,9.67360973 28.3451068,9.35452079 28.3451068,8.96090465 C28.3451068,8.5672885 28.6641109,8.24819957 29.0576225,8.24819957 L31.4079064,8.24819957 C31.801418,8.24819957 32.1204221,8.5672885 32.1204221,8.96090465 C32.1204221,9.35452079 31.801418,9.67360973 31.4079064,9.67360973 L31.4079064,9.67360973 Z" id="路径" fill="#0058FF"></path>
                    <path d="M31.901578,14.2053959 L20.9145859,14.2053959 C20.6465868,14.2281129 20.3886369,14.0979434 20.2476475,13.8688383 C20.106658,13.6397332 20.106658,13.3507391 20.2476475,13.121634 C20.3886369,12.8925289 20.6465868,12.7623595 20.9145859,12.7850765 L31.901578,12.7850765 C32.1695771,12.7623595 32.427527,12.8925289 32.5685164,13.121634 C32.7095059,13.3507391 32.7095059,13.6397332 32.5685164,13.8688383 C32.427527,14.0979434 32.1695771,14.2281129 31.901578,14.2053959 L31.901578,14.2053959 Z" id="路径" fill="#0058FF"></path>
                    <path d="M22.1747208,14.2053959 C21.7812092,14.2053959 21.4622051,13.886307 21.4622051,13.4926908 L21.4622051,8.16369311 C21.4394942,7.89562282 21.569629,7.63760437 21.7986732,7.49657745 C22.0277174,7.35555053 22.3166348,7.35555053 22.545679,7.49657745 C22.7747232,7.63760437 22.904858,7.89562282 22.8821471,8.16369311 L22.8821471,13.4947271 C22.8810407,13.8855695 22.5654509,14.2026057 22.1747208,14.2053959 L22.1747208,14.2053959 Z" id="路径" fill="#0058FF"></path>
                    <path d="M32.9052166,5.28029198 C32.9053815,5.55106056 32.7585298,5.800562 32.5217488,5.93178923 C32.2849677,6.06301645 31.9956181,6.05526362 31.7662,5.91154505 L27.0198276,2.93040151 C26.6389177,2.69262033 26.1558707,2.69262033 25.7749609,2.93040151 L21.0285884,5.91154505 C20.8032358,6.05533981 20.5180894,6.06717528 20.2816015,5.94254998 C20.0451136,5.81792469 19.8936282,5.57599133 19.8847611,5.30876659 C19.875894,5.04154185 20.011008,4.79009348 20.2387138,4.65005706 L21.2565934,4.01065879 L24.9840684,1.66891352 C25.850306,1.127218 26.9495718,1.127218 27.8158094,1.66891352 L32.5601461,4.65005706 C32.7760844,4.78659523 32.906484,5.02476274 32.9052166,5.28029198 L32.9052166,5.28029198 Z" id="路径" fill="#0058FF"></path>
                    <path d="M44.2057063,24 L2.79429368,24 C1.2344065,23.9415355 0,22.6596689 0,21.0982722 C0,19.5368754 1.2344065,18.2550089 2.79429368,18.1965443 L44.2057063,18.1965443 C45.7655935,18.2550089 47,19.5368754 47,21.0982722 C47,22.6596689 45.7655935,23.9415355 44.2057063,24 L44.2057063,24 Z M2.79429368,18.4826445 C1.8483195,18.4639695 0.966102947,18.9580895 0.487644094,19.7745741 C0.00918523993,20.5910587 0.00918523993,21.6024312 0.487644094,22.4189158 C0.966102947,23.2354004 1.8483195,23.7295204 2.79429368,23.7108454 L44.2057063,23.7108454 C45.1516805,23.7295204 46.0338971,23.2354004 46.5123559,22.4189158 C46.9908148,21.6024312 46.9908148,20.5910587 46.5123559,19.7745741 C46.0338971,18.9580895 45.1516805,18.4639695 44.2057063,18.4826445 L2.79429368,18.4826445 Z" id="形状" fill="#BCBCBC"></path>
                    <path d="M4.57456506,21.7783964 C4.60327533,21.8837905 4.66631952,21.9765905 4.75371187,22.0420973 C4.85482404,22.1122056 4.9758084,22.1479036 5.09877304,22.1439123 C5.1571923,22.1441799 5.21538593,22.136647 5.27181257,22.121513 C5.33937655,22.1015897 5.4016298,22.0668021 5.45401301,22.019698 C5.50359071,21.9709192 5.54242265,21.912309 5.56801553,21.8476307 C5.59435938,21.7719214 5.60878175,21.6925773 5.61076647,21.612438 C5.60836992,21.54289 5.59497136,21.4741612 5.57106917,21.408808 C5.54553939,21.3477782 5.50817669,21.2924114 5.46113817,21.2459039 C5.40974154,21.1990532 5.34853775,21.164269 5.28199137,21.1440889 C5.22651858,21.1288351 5.16948874,21.1199539 5.11200548,21.117617 C4.91724888,21.1140004 4.73283593,21.2050927 4.617316,21.3619731 L4.31195213,21.3131018 L4.42595464,19.9966337 L5.80416359,19.9966337 L5.80416359,20.289861 L4.69671061,20.289861 L4.64072723,21.0524554 C4.78070102,20.9095015 4.97201902,20.8284814 5.17206037,20.8274442 C5.2855613,20.8274061 5.39808103,20.848466 5.50388911,20.8895514 C5.70036772,20.9695622 5.84676748,21.1387045 5.89780851,21.3446645 C5.91908328,21.4320722 5.9310254,21.5214912 5.93343429,21.6114198 C5.93135762,21.7278012 5.91144711,21.8431755 5.87439728,21.9535183 C5.83590969,22.0554391 5.77583859,22.1478273 5.69830411,22.2243462 C5.61497368,22.2997832 5.51637949,22.3563858 5.40922631,22.3903047 C5.31228808,22.4167321 5.21246031,22.4310947 5.11200548,22.433067 C5.02369422,22.4297786 4.93583101,22.4188779 4.84939255,22.4004862 C4.74876863,22.3773063 4.65299239,22.3366423 4.56642202,22.2803445 C4.4103887,22.1753344 4.29899909,22.0160085 4.25393299,21.8333766 L4.57456506,21.7783964 Z" id="路径" fill="#6D6D6D"></path>
                    <path d="M8.61860061,21.3823361 C8.7034887,21.2643516 8.82469467,21.1774464 8.96366179,21.1349256 C8.85611661,21.0922451 8.76168731,21.0220188 8.68985218,20.9312956 C8.61060941,20.8375771 8.56667373,20.7190633 8.56567087,20.5963242 C8.56587625,20.5061484 8.58603766,20.4171365 8.62470789,20.3356777 C8.66598013,20.2551555 8.7235171,20.1840819 8.7936759,20.126957 C8.87722911,20.0669621 8.97106682,20.0227915 9.07053914,19.9966337 C9.15805405,19.9736502 9.24782462,19.9603347 9.33824147,19.9569259 C9.42495341,19.9591776 9.51122329,19.9700921 9.595765,19.9895067 C9.6939678,20.014854 9.78628346,20.059122 9.86753885,20.1198299 C9.93901256,20.1758941 9.99708447,20.2471989 10.0375247,20.3285507 C10.0758283,20.4113033 10.0966207,20.5010812 10.0985975,20.5922516 C10.0959544,20.7120437 10.0561118,20.8280448 9.984595,20.9241685 C9.91369489,21.0171531 9.81760246,21.087828 9.70773176,21.1277985 C9.83520423,21.1639641 9.95032526,21.2343932 10.0405784,21.3314285 C10.1345037,21.4412869 10.1864395,21.5809016 10.187153,21.7254526 C10.1855834,21.8164476 10.1690775,21.9065664 10.1382948,21.992208 C10.0958532,22.0906045 10.0297695,22.1769909 9.94591558,22.2436911 C9.86057691,22.3069115 9.76528187,22.355432 9.66396294,22.3872502 C9.55866807,22.4155819 9.45031282,22.4309676 9.34129511,22.433067 C9.23024095,22.4313225 9.11982187,22.415935 9.01252001,22.3872502 C8.91044243,22.3591791 8.81424712,22.3129655 8.72853161,22.2508181 C8.6462843,22.1857164 8.58272141,22.1000066 8.5442954,22.0023895 C8.5137113,21.9157355 8.49821833,21.8244749 8.49848729,21.7325797 C8.50086576,21.6061302 8.54287871,21.4836192 8.61860061,21.3823361 L8.61860061,21.3823361 Z M8.94737572,22.0339521 C8.99652119,22.078588 9.05392183,22.1131759 9.11634372,22.1357671 C9.18837609,22.1622567 9.26454919,22.1757026 9.34129511,22.1754778 C9.47008099,22.1752095 9.59548686,22.1342279 9.69958872,22.0583877 C9.80194226,21.977142 9.86094538,21.8530898 9.85939581,21.7223982 C9.85896547,21.6050798 9.81212339,21.4927022 9.72910723,21.4098261 C9.67929975,21.3655663 9.6216432,21.3310322 9.55912134,21.3080111 C9.48876522,21.2846455 9.41539232,21.2716132 9.34129511,21.2693214 C9.26715214,21.2711652 9.19371378,21.2842091 9.12346888,21.3080111 C9.06094702,21.3310322 9.00329047,21.3655663 8.95348299,21.4098261 C8.86890102,21.4916429 8.82177045,21.6047127 8.82319441,21.7223982 C8.820452,21.8381437 8.86708987,21.949586 8.95144723,22.0288614 L8.94737572,22.0339521 Z M9.03491336,20.913987 C9.12184855,20.9822619 9.22977504,21.0182469 9.34027723,21.015802 C9.44793239,21.0179079 9.5528598,20.9818408 9.63648019,20.913987 C9.7219202,20.8418287 9.77121436,20.7356654 9.77121436,20.6238142 C9.77121436,20.511963 9.7219202,20.4057997 9.63648019,20.3336414 C9.55236622,20.2639738 9.44642887,20.226129 9.33722359,20.2267357 C9.22188781,20.2250245 9.10969552,20.2643564 9.02066304,20.337714 C8.94041556,20.4086354 8.89444598,20.5105936 8.89444598,20.6177053 C8.89662135,20.7294549 8.94803107,20.8345374 9.03491336,20.9048236 L9.03491336,20.913987 Z" id="形状" fill="#6D6D6D"></path>
                    <path d="M14.3278871,19.5853011 C14.4086389,19.7000127 14.4890514,19.8160818 14.5691246,19.9335084 L14.4612294,19.9823796 L15.4791089,19.9823796 L15.4791089,20.1778645 L14.4856585,20.1778645 L14.4856585,20.3733493 L15.4017501,20.3733493 L15.4017501,20.5596708 L14.4856585,20.5596708 L14.4856585,20.7551556 L15.4017501,20.7551556 L15.4017501,20.9404589 L14.4856585,20.9404589 L14.4856585,21.1440889 L15.5310208,21.1440889 L15.5310208,21.3477189 L13.3700625,21.3477189 L13.3700625,21.4709151 L13.1064317,21.4709151 L13.1064317,20.4660009 C13.0046437,20.5830882 12.9028557,20.6950847 12.790889,20.8019905 L12.6565289,20.567816 C12.8077002,20.4329326 12.9441774,20.2824266 13.0636807,20.1188118 C13.180315,19.9667552 13.282544,19.8041678 13.3690446,19.6331542 L13.6235145,19.7044247 C13.5736384,19.8062397 13.5217265,19.8958369 13.4637074,19.9844159 L14.2942971,19.9844159 C14.2311886,19.8938006 14.1690979,19.8011489 14.1059894,19.7074791 L14.3278871,19.5853011 Z M13.4117955,22.0909685 C13.6072125,22.0191102 13.7931561,21.9237204 13.965522,21.8069047 L12.7705314,21.8069047 L12.7705314,21.5859661 L14.0408451,21.5859661 L14.0408451,21.3823361 L14.3044759,21.3823361 L14.3044759,21.5859661 L15.5880221,21.5859661 L15.5880221,21.8038502 L14.3899778,21.8038502 C14.566532,21.9163515 14.7553931,22.0082451 14.9528652,22.0777326 C15.1823073,22.1564366 15.4161369,22.2217087 15.6531664,22.2732174 L15.5513784,22.514519 C15.2958465,22.4474183 15.0446427,22.3647948 14.7991654,22.2671085 C14.6256833,22.2001129 14.4598471,22.1147835 14.3044759,22.012571 L14.3044759,22.5735717 L14.0408451,22.5735717 L14.0408451,22.019698 C13.8853148,22.1209679 13.7203231,22.2068956 13.5481914,22.2762719 C13.3016334,22.3766883 13.0494533,22.4626971 12.7929248,22.5338638 L12.6911368,22.2895078 C12.9355933,22.2401367 13.1766439,22.175182 13.4128134,22.0950411 L13.4117955,22.0909685 Z M13.3690446,20.3733493 L14.2260992,20.3733493 L14.2260992,20.1778645 L13.3690446,20.1778645 L13.3690446,20.3733493 Z M13.3690446,20.7551556 L14.2260992,20.7551556 L14.2260992,20.5596708 L13.3690446,20.5596708 L13.3690446,20.7551556 Z M13.3690446,21.1389982 L14.2260992,21.1389982 L14.2260992,20.9353682 L13.3690446,20.9353682 L13.3690446,21.1389982 Z" id="形状" fill="#6D6D6D"></path>
                    <path d="M20.9105144,19.7909674 L20.9105144,22.582735 L20.6305975,22.582735 L20.6305975,22.4137221 L18.5785523,22.4137221 L18.5785523,22.582735 L18.2955817,22.582735 L18.2955817,19.7909674 L20.9105144,19.7909674 Z M18.5785523,22.1561301 L20.6305975,22.1561301 L20.6305975,20.0587409 L18.5785523,20.0587409 L18.5785523,22.1561301 Z M19.18928,21.239795 C19.3670088,21.0953142 19.5247983,20.9278965 19.6585225,20.7419196 L18.7424309,20.7419196 L18.7424309,20.4904366 L19.8559911,20.4904366 L19.8559911,20.1554652 L20.1165683,20.1554652 L20.1165683,20.4904366 L20.4972553,20.4904366 L20.4972553,20.7419196 L20.1165683,20.7419196 L20.1165683,21.6440006 C20.1166281,21.7057125 20.1077132,21.7671049 20.0901034,21.8262495 C20.0782655,21.8600622 20.0583484,21.89047 20.0320843,21.9148286 C19.9924062,21.9482527 19.9452781,21.9716484 19.8946705,21.9830446 C19.8228186,21.9959807 19.7498206,22.0014399 19.6768443,21.999335 L19.3338189,21.999335 L19.2788534,21.7488701 L19.6239146,21.7488701 C19.6640917,21.7510075 19.7043817,21.7486168 19.7440244,21.741743 C19.769731,21.7377092 19.7937476,21.7264043 19.8132402,21.7091622 C19.8252447,21.6949636 19.8339374,21.6782692 19.8386872,21.660291 C19.84766,21.6239863 19.8521047,21.5867099 19.8519196,21.5493127 L19.8519196,20.8885332 C19.7279368,21.0624519 19.5860101,21.2228444 19.4284817,21.3670638 C19.2357946,21.540355 19.0264503,21.6941651 18.8035036,21.8262495 L18.6436965,21.6053109 C18.8360154,21.4997466 19.0179971,21.376348 19.1872442,21.2367406 L19.18928,21.239795 Z" id="形状" fill="#6D6D6D"></path>
                    <path d="M25.4156494,21.7325797 C25.356472,21.5578831 25.3095358,21.3792743 25.275182,21.1980509 C25.2249666,20.9394408 25.1879836,20.6777762 25.1642331,20.4130571 L24.1056383,20.4130571 L24.1056383,20.8498435 L24.9321566,20.8498435 C24.9212992,21.1817605 24.9050131,21.5116411 24.8832983,21.8394855 C24.876948,21.9087843 24.8626023,21.9771154 24.8405474,22.0431155 C24.8221055,22.0936515 24.7908955,22.1385497 24.7499561,22.1734387 C24.7155291,22.1984055 24.6769227,22.2170243 24.6359536,22.2284188 C24.5587719,22.2457658 24.4799291,22.2546423 24.4008234,22.2548907 L24.1728184,22.2548907 L24.1178529,21.9830446 L24.3326255,21.9830446 C24.3815685,21.985119 24.4305993,21.9830755 24.4792002,21.9769357 C24.5034586,21.9727074 24.5266381,21.9637099 24.5473981,21.9504638 C24.5703284,21.9346288 24.5874792,21.9117549 24.5962563,21.8853022 C24.6054427,21.846729 24.6122415,21.8076256 24.6166139,21.7682149 C24.6308642,21.551349 24.6420609,21.3314285 24.649186,21.11049 L24.1076741,21.11049 C24.1076741,21.2683032 24.0964774,21.4271347 24.0791735,21.5859661 C24.0683161,21.6837085 24.05203,21.782469 24.0303153,21.8822478 C23.9710152,22.1280927 23.8741986,22.3633302 23.7432732,22.5796806 L23.4765888,22.4554663 C23.5437688,22.3475424 23.6038237,22.2375822 23.6587892,22.1266038 C23.7082702,22.0188387 23.7464744,21.906243 23.7727917,21.7906142 C23.7917921,21.6928718 23.8070603,21.5951294 23.8185963,21.497387 C23.8308109,21.3304104 23.837936,21.1624156 23.837936,20.988312 L23.837936,20.1452837 L25.1438755,20.1452837 C25.1286073,19.9803433 25.1153749,19.8123486 25.1051961,19.6433357 L25.3749342,19.6433357 C25.3840951,19.8123486 25.3952918,19.9803433 25.41056,20.1452837 L25.9714116,20.1452837 C25.8492661,20.0210693 25.7261026,19.8999095 25.5998856,19.7797678 L25.7790324,19.6077004 C25.9147496,19.7325935 26.0484312,19.860541 26.1800769,19.991543 L26.010091,20.1452837 L26.449815,20.1452837 L26.449815,20.4089845 L25.4319354,20.4089845 C25.4615493,20.7719595 25.5225102,21.1316903 25.6141359,21.4841511 C25.6971088,21.3634007 25.7712671,21.2368218 25.8360336,21.1053992 C25.9143549,20.9439162 25.9823502,20.7776234 26.0396095,20.6075238 L26.2839006,20.7093388 C26.208178,20.918472 26.1190997,21.1225224 26.0172162,21.3202289 C25.9307052,21.4840076 25.8302419,21.6400226 25.7169417,21.7865416 C25.7560875,21.8917014 25.8087835,21.9913027 25.8736952,22.0828233 C25.9017643,22.1314658 25.9359746,22.1762932 25.9754831,22.216201 C26.0012713,22.2403399 26.0348583,22.2544286 26.0701459,22.2559089 C26.1070815,22.2556398 26.1409729,22.2353775 26.1587015,22.202965 C26.1913127,22.1442105 26.2143352,22.080624 26.2268994,22.0146073 C26.2523464,21.8924293 26.2767755,21.7702512 26.298151,21.6460369 L26.5363348,21.72138 C26.5098699,21.8629029 26.4803514,22.0023895 26.4477792,22.141876 C26.4331339,22.1983467 26.4147721,22.2537871 26.3928138,22.3078345 C26.3708756,22.3606625 26.3398724,22.409247 26.3012046,22.4513937 C26.2389148,22.5147077 26.1527692,22.5487313 26.0640386,22.5450635 C25.9899334,22.542944 25.918509,22.5168671 25.8604627,22.4707385 C25.817707,22.436642 25.7794058,22.3973045 25.7464602,22.3536513 C25.7006556,22.2945986 25.6589226,22.2345277 25.6192253,22.1744568 C25.5829761,22.1205255 25.5513109,22.0636493 25.5245625,22.0044258 C25.3509926,22.1788581 25.1626613,22.3379433 24.9616751,22.4799019 L24.7825283,22.2762719 C25.0123355,22.1181269 25.2245819,21.9358605 25.4156494,21.7325797 L25.4156494,21.7325797 Z" id="路径" fill="#6D6D6D"></path>
                    <path d="M29.6042238,22.1856565 C29.7093225,22.1529141 29.8114726,22.111362 29.9095877,22.0614422 C30.0082113,22.0119819 30.0955423,21.9426532 30.1660933,21.8578122 C30.2246724,21.7794711 30.265013,21.6890284 30.2841674,21.5930931 C30.3038464,21.4810966 30.3211503,21.3670638 30.3360792,21.2509947 L30.6190497,21.2509947 C30.606079,21.4132711 30.5822754,21.5744984 30.5477982,21.7335978 L30.540673,21.7631242 C30.9790398,21.9457125 31.416728,22.130337 31.8537377,22.3169979 L31.7234491,22.5776443 C31.2891538,22.3780869 30.8528228,22.1846383 30.414456,21.9972987 C30.3551042,22.0689965 30.28667,22.1326571 30.21088,22.1866746 C30.1136863,22.2491851 30.0115602,22.3036669 29.9055162,22.3495787 C29.6544419,22.4534955 29.3935756,22.5319467 29.1268383,22.5837532 L29.036247,22.3200523 C29.2245547,22.2854352 29.4108267,22.2396185 29.6042238,22.1856565 Z M31.5646599,20.873261 L31.5646599,21.9015926 L31.2877966,21.9015926 L31.2877966,21.1227078 L29.6306887,21.1227078 L29.6306887,21.917883 L29.3497539,21.917883 L29.3497539,20.873261 L31.5646599,20.873261 Z M31.4628719,19.787913 L31.4628719,20.6024331 L29.4545955,20.6024331 L29.4545955,19.787913 L31.4628719,19.787913 Z M29.7406197,20.3641859 L31.1778656,20.3641859 L31.1778656,20.0281964 L29.7406197,20.0281964 L29.7406197,20.3641859 Z" id="形状" fill="#6D6D6D"></path>
                    <path d="M35.1252026,20.3020788 C35.365186,20.1166928 35.5788613,19.8995356 35.7603595,19.6565716 L36.0107579,19.6565716 C36.1931458,19.9017681 36.4066574,20.1221816 36.6459147,20.3122603 C36.8847623,20.5002784 37.1410838,20.6649542 37.4113602,20.8040268 L37.2556246,21.0646732 C36.9980444,20.9238063 36.7528744,20.761338 36.5227513,20.5790156 C36.39857,20.4772006 36.2794781,20.3753856 36.1644577,20.2603346 C36.0649638,20.1623983 35.9724497,20.0576118 35.8875944,19.9467444 C35.8025988,20.0549421 35.7100816,20.1570102 35.6107312,20.2521894 C35.4977466,20.3611315 35.3776368,20.4649828 35.2524376,20.5647615 C35.0187758,20.7510585 34.7702621,20.9179134 34.5093855,21.0636551 L34.352632,20.8030086 C34.6253022,20.6606555 34.8839672,20.4929387 35.1252026,20.3020788 L35.1252026,20.3020788 Z M36.0789558,20.5240355 L36.0789558,21.2011053 L37.0042083,21.2011053 L37.0042083,21.4749877 L36.0789558,21.4749877 L36.0789558,22.1693661 L37.3105901,22.1693661 L37.3105901,22.4391759 L34.411669,22.4391759 L34.411669,22.1693661 L34.8778579,22.1693661 L34.8778579,21.015802 L35.1516675,21.015802 L35.1516675,22.1693661 L35.8020925,22.1693661 L35.8020925,20.5240355 L36.0789558,20.5240355 Z" id="形状" fill="#6D6D6D"></path>
                    <path d="M40.7927561,22.1367853 L40.7927561,19.6830435 L41.0859054,19.6830435 L41.0859054,22.1367853 L41.5419155,22.1367853 L41.5419155,19.6830435 L41.8350648,19.6830435 L41.8350648,22.1367853 L42.7664246,22.1367853 L42.7664246,22.4137221 L39.8573248,22.4137221 L39.8573248,22.1367853 L40.7927561,22.1367853 Z M40.2003502,20.2145179 C40.4039261,20.6441772 40.5983411,21.0762123 40.7835952,21.510623 L40.5057141,21.6378917 C40.3252101,21.1987296 40.1362238,20.7633008 39.9387551,20.3316051 L40.2003502,20.2145179 Z M42.4396853,20.2267357 L42.7094233,20.3448411 C42.5228121,20.7853607 42.3243256,21.2197714 42.1139638,21.6480732 L41.8493151,21.5136774 C42.0680356,21.095106 42.265086,20.6655579 42.4396853,20.2267357 L42.4396853,20.2267357 Z" id="形状" fill="#6D6D6D"></path>
                </g>
            </g>
        </g>
    </g>
</svg>