<?xml version="1.0" encoding="UTF-8"?>
<svg width="24px" height="24px" viewBox="0 0 24 24" version="1.1" xmlns="http://www.w3.org/2000/svg" xmlns:xlink="http://www.w3.org/1999/xlink">
    <title>编组</title>
    <g id="页面-1" stroke="none" stroke-width="1" fill="none" fill-rule="evenodd">
        <g id="底部bar" transform="translate(-316.000000, -163.000000)">
            <g id="编组-4备份-2" transform="translate(0.000000, 153.000000)">
                <g id="我的" transform="translate(282.000000, 0.000000)">
                    <g id="编组" transform="translate(46.000000, 22.000000) rotate(90.000000) translate(-46.000000, -22.000000) translate(34.000000, 10.000000)">
                        <rect id="矩形" fill-opacity="0.01" fill="#FFFFFF" fill-rule="nonzero" x="0" y="0" width="24" height="24"></rect>
                        <line x1="5.5" y1="11" x2="5.5" y2="21" id="路径" stroke="#2574F0" stroke-width="1.5" stroke-linecap="round"></line>
                        <line x1="12" y1="17.5" x2="12" y2="21" id="路径" stroke="#2574F0" stroke-width="1.5" stroke-linecap="round"></line>
                        <line x1="12" y1="6.5" x2="12" y2="3" id="路径" stroke="#2574F0" stroke-width="1.5" stroke-linecap="round"></line>
                        <line x1="18.5" y1="3" x2="18.5" y2="13" id="路径" stroke="#2574F0" stroke-width="1.5" stroke-linecap="round"></line>
                        <path d="M5.5,8 C6.8807,8 8,6.8807 8,5.5 C8,4.11929 6.8807,3 5.5,3 C4.11929,3 3,4.11929 3,5.5 C3,6.8807 4.11929,8 5.5,8 Z" id="路径" stroke="#2574F0" stroke-width="1.5" fill="#2574F0" fill-rule="nonzero"></path>
                        <path d="M12,14.5 C13.3807,14.5 14.5,13.3807 14.5,12 C14.5,10.6193 13.3807,9.5 12,9.5 C10.6193,9.5 9.5,10.6193 9.5,12 C9.5,13.3807 10.6193,14.5 12,14.5 Z" id="路径" stroke="#2574F0" stroke-width="1.5" fill="#FFFFFF" fill-rule="nonzero"></path>
                        <path d="M18.5,21 C19.8807,21 21,19.8807 21,18.5 C21,17.1193 19.8807,16 18.5,16 C17.1193,16 16,17.1193 16,18.5 C16,19.8807 17.1193,21 18.5,21 Z" id="路径" stroke="#2574F0" stroke-width="1.5" fill="#2574F0" fill-rule="nonzero"></path>
                    </g>
                </g>
            </g>
        </g>
    </g>
</svg>