<?xml version="1.0" encoding="UTF-8"?>
<svg width="24px" height="24px" viewBox="0 0 24 24" version="1.1" xmlns="http://www.w3.org/2000/svg" xmlns:xlink="http://www.w3.org/1999/xlink">
    <title>编组</title>
    <g id="页面-1" stroke="none" stroke-width="1" fill="none" fill-rule="evenodd">
        <g id="底部bar" transform="translate(-35.000000, -163.000000)">
            <g id="编组-4备份-2" transform="translate(0.000000, 153.000000)">
                <g id="编组" transform="translate(35.000000, 10.000000)">
                    <rect id="矩形" stroke="#979797" fill="#D8D8D8" opacity="0" x="0.5" y="0.5" width="23" height="23"></rect>
                    <path d="M22,5.5 C22,4.671575 21.32845,4 20.5,4 L3.5,4 C2.671575,4 2,4.671575 2,5.5 L2,10 L22,10 L22,5.5 Z" id="路径" stroke="#2574F0" stroke-width="1.5" fill="#2574F0" fill-rule="nonzero" stroke-linecap="round"></path>
                    <path d="M22,9 L22,18.5 C22,19.32845 21.32845,20 20.5,20 L6,20" id="路径" stroke="#2574F0" stroke-width="1.5" stroke-linecap="round"></path>
                    <line x1="9.8059" y1="7" x2="18.8059" y2="7" id="路径" stroke="#FFFFFF" stroke-width="1.5" stroke-linecap="round"></line>
                    <line x1="5.8054" y1="7" x2="6.8054" y2="7" id="路径" stroke="#FFFFFF" stroke-width="1.5" stroke-linecap="round"></line>
                    <line x1="2" y1="9" x2="2" y2="13.5" id="路径" stroke="#2574F0" stroke-width="1.5" stroke-linecap="round"></line>
                    <line x1="7" y1="14" x2="7" y2="17" id="直线" stroke="#2574F0" stroke-width="1.5" stroke-linecap="round"></line>
                    <line x1="12" y1="15" x2="12" y2="17" id="直线备份" stroke="#2574F0" stroke-width="1.5" stroke-linecap="round"></line>
                    <line x1="17" y1="13" x2="17" y2="17" id="直线备份-2" stroke="#2574F0" stroke-width="1.5" stroke-linecap="round"></line>
                </g>
            </g>
        </g>
    </g>
</svg>